<?xml version="1.0" encoding="utf-8"?>
<!-- Generator: Adobe Illustrator 27.2.0, SVG Export Plug-In . SVG Version: 6.00 Build 0)  -->
<svg version="1.1" id="Layer_1" xmlns="http://www.w3.org/2000/svg" xmlns:xlink="http://www.w3.org/1999/xlink" x="0px" y="0px"
	 viewBox="0 0 148.4 105.1" style="enable-background:new 0 0 148.4 105.1;" xml:space="preserve">
<style type="text/css">
	.st0{fill:#FFFFFF;}
</style>
<g>
	<path class="st0" d="M130.8,13.3c-2.7-2.4-5.6-4.5-8.7-6.3v16.6C112.7,9.4,96.5,0,78.2,0v24.5c-0.7-7.2-4-13-9.9-17.2
		c-6.7-4.8-16.2-7.2-28.4-7.2H0v105.1h41.9c12.8,0,22.7-2.6,29.7-7.9c2.7-2.1,4.9-4.4,6.6-7.1v14.9c18.3,0,34.5-9.4,43.9-23.6v16.6
		c3.1-1.8,6-3.9,8.7-6.3c10.8-9.6,17.6-23.6,17.6-39.3S141.6,23,130.8,13.3z M22.5,17.8h18c4.8,0,8.6,1.2,11.3,3.5
		c2.7,2.3,4.1,5.4,4.1,9.3s-1.4,7-4.1,9.3s-6.5,3.5-11.3,3.5h-18V17.8z M54.6,83.9c-3,2.3-7.1,3.5-12.5,3.5H22.5V60.8H42
		c5.3,0,9.5,1.2,12.5,3.5c3,2.4,4.5,5.7,4.5,10C59,78.4,57.5,81.6,54.6,83.9z M78.2,61.7c-0.7-1-1.5-2-2.5-2.9
		c-4.3-4-10.3-6.5-18.1-7.5c6.6-1.2,11.7-3.8,15.3-7.8c3-3.3,4.7-7.6,5.2-12.7L78.2,61.7L78.2,61.7z"/>
</g>
</svg>
